<svg xmlns="http://www.w3.org/2000/svg" xmlns:xlink="http://www.w3.org/1999/xlink" version="1.1" id="Layer_1" x="0px" y="0px" viewBox="0 0 750.3 151.2" enable-background="new 0 0 750.3 151.2" xml:space="preserve">
<g>
	<path d="M13.6 148.5v-7.6h24c2.8 0 5.9-1.3 9.3-4c3.4-2.7 5.1-5.9 5.1-9.6c0-5.2-2.7-10.8-8-16.7c-5.3-6-8-12.1-8-18.3 c0-6.4 2.8-11.8 8.4-16.3c4.7-3.6 9.5-5.4 14.4-5.4h17.8l-0.2 7.6H58.8c-3.2 0-6.4 1.3-9.7 3.8c-3.6 2.9-5.4 6.3-5.5 10.2 c0 5.5 2.7 11.3 8 17.4c5.3 6.2 8 12 8 17.6c0 6-2.3 11-7 15.1c-4.7 4.1-9.7 6.1-15 6.1H13.6z"/>
	<path d="M101.2 130.4V0h7.6v130.4c0 5.3 1.6 10.5 4.8 15.4h-8.4C102.5 142.2 101.2 137 101.2 130.4z"/>
	<path d="M139.7 116.6V70.4h7.6v46.1c0 11.6 6.1 19.2 18.4 22.9c2.9 0.8 5.4 1.2 7.4 1.3c2 0 4.5-0.4 7.4-1.3 c12.2-3.7 18.4-11.3 18.4-22.9V70.4h7.6v46.2c0 15-7.8 25-23.4 30c-3.7 1.2-7 1.8-10 1.8s-6.2-0.6-10-1.8 C147.6 141.8 139.7 131.8 139.7 116.6z"/>
	<path d="M232 148.5v-7.6h24c2.8 0 5.9-1.3 9.3-4c3.4-2.7 5.1-5.9 5.1-9.6c0-5.2-2.7-10.8-8-16.7c-5.3-6-8-12.1-8-18.3 c0-6.4 2.8-11.8 8.4-16.3c4.7-3.6 9.5-5.4 14.4-5.4H295l-0.2 7.6h-17.5c-3.2 0-6.4 1.3-9.7 3.8c-3.6 2.9-5.4 6.3-5.5 10.2 c0 5.5 2.7 11.3 8 17.4c5.3 6.2 8 12 8 17.6c0 6-2.3 11-7 15.1c-4.7 4.1-9.7 6.1-15 6.1H232z"/>
	<path d="M319.6 77.8V0.1h7.6v70.3c1.9-0.1 5-0.2 9.4-0.2c15.6 0 28.4 4.3 38.2 12.9c10.4 8.9 15.6 21.1 15.6 36.5v30.5h-7.6v-30.5 c0-12.1-4.2-22.1-12.7-30c-8.5-7.9-19.6-11.8-33.5-11.8H319.6z"/>
	<path d="M415.9 146.8v-43c0-9.2 3.2-16.8 9.7-22.9c6.5-6.1 14.4-9.1 23.7-9.1c5.2 0 10.8 1.6 16.8 4.7c6 3.1 10.3 6.8 12.8 11.1 c2.5-4.3 6.8-8 12.8-11.1c6-3.1 11.6-4.7 16.8-4.7c9.3 0 17.2 3 23.7 9.1c6.5 6.1 9.7 13.7 9.7 22.9v43h-7.6v-43 c0-6.5-1.5-11.4-4.4-14.8c-2.9-3.4-7.6-6.1-14-8.3c-2.8-0.8-5.4-1.2-7.8-1.2c-2 0-4.4 0.4-7.2 1.2c-6.4 2.1-10.9 4.8-13.6 8 c-3.1 3.5-4.6 8.5-4.6 15v43h-7.6v-45.4c0-6.2-2.8-11.5-8.4-15.8c-5.1-4-10.9-6-17.4-6c-2.3 0-4.8 0.4-7.4 1.2 c-6.5 2.1-11.1 4.8-13.8 8c-3.1 3.5-4.6 8.5-4.6 15v43H415.9z"/>
	<path d="M561.4 119.6c0-15.5 7.1-27.9 21.2-37.2c12.2-8 26.6-12.1 43-12.1l16.2-0.2v71c-4 1.8-10.7 3.6-20.3 5.4 c-9.5 1.9-16.6 2.8-21.1 2.8C574.4 149.2 561.4 139.3 561.4 119.6z M569 119.6c0 7.6 3.7 13.4 11 17.3c5.7 3.1 12.8 4.6 21.2 4.6 c14.5 0 25.5-2 33-6c0 0.2 0 0.3-0.1 0.3c-0.1 0-0.2-7.4-0.2-22.2c0-4 0.1-9.8 0.3-17.6c0.2-7.8 0.3-13.6 0.3-17.3 c-1.2-0.4-2.9-0.6-5.3-0.7c-15.4 0-28.6 3.1-39.7 9.3C575.9 94.6 569 105.5 569 119.6z"/>
	<path d="M671.6 146.8v-43c0-15.2 7.8-25.2 23.4-30.1c3.5-1 6.8-1.6 10-1.6c3.2 0 6.5 0.5 10 1.6c15.6 4.9 23.4 15 23.4 30.1v43 h-7.6v-43c0-11.6-6.1-19.3-18.4-23c-2.5-0.8-4.9-1.2-7.2-1.2c-2.4 0-4.9 0.4-7.6 1.2c-12.2 3.7-18.4 11.4-18.4 23v43H671.6z"/>
</g>
</svg>
